<svg width="48" height="48" viewBox="0 0 48 48" fill="none" xmlns="http://www.w3.org/2000/svg">
<path d="M39.4528 10.8576C39.6416 10.9344 39.84 10.9984 40.0224 11.0912C40.4516 11.2873 40.8115 11.6086 41.0548 12.0129C41.2981 12.4173 41.4134 12.8857 41.3856 13.3568C41.3856 20.0832 41.3856 26.8107 41.3856 33.5392C41.3856 34.448 41.3856 35.3568 41.3856 36.2656C41.3992 36.5917 41.3449 36.917 41.2261 37.221C41.1074 37.525 40.9267 37.801 40.6956 38.0315C40.4646 38.2619 40.1881 38.4419 39.8838 38.5599C39.5795 38.6778 39.254 38.7313 38.928 38.7168C30.0426 38.7189 21.1509 38.72 12.2528 38.72C11.6813 38.7417 11.1213 38.5556 10.6765 38.1961C10.2317 37.8366 9.93221 37.3281 9.83357 36.7648C9.80546 36.628 9.7947 36.4883 9.80157 36.3488C9.8032 36.1993 9.86194 36.0561 9.96574 35.9486C10.0695 35.841 10.2106 35.7772 10.3599 35.7702C10.5092 35.7633 10.6555 35.8137 10.7689 35.9112C10.8823 36.0086 10.954 36.1457 10.9696 36.2944C11.1552 37.2544 11.4784 37.5456 12.4608 37.5456C21.2074 37.5456 29.9541 37.5456 38.7008 37.5456C39.7696 37.5456 40.1984 37.12 40.1984 36.0544V13.52C40.1984 12.4544 39.7696 12.032 38.6944 12.032H12.4544C11.4048 12.032 10.976 12.4608 10.9728 13.4976C10.9728 14.6048 10.9888 15.7088 10.9728 16.8128C10.9728 17.1616 11.0528 17.2448 11.4048 17.2448C19.872 17.232 28.3413 17.232 36.8128 17.2448H37.1072C37.5872 17.2448 37.8656 17.4656 37.8624 17.8368C37.8592 18.208 37.5872 18.4192 37.104 18.4192C28.5493 18.4192 19.9946 18.4192 11.44 18.4192C11.0496 18.4192 10.9248 18.528 10.9792 18.896C10.992 19.0493 10.992 19.2035 10.9792 19.3568C10.9792 19.8272 10.7456 20.112 10.3808 20.1056C10.016 20.0992 9.80797 19.8208 9.80477 19.376C9.80477 18.736 9.80477 18.1152 9.80477 17.488C9.80477 16.1152 9.80477 14.7456 9.80477 13.376C9.77149 12.8193 9.93736 12.269 10.2727 11.8234C10.6081 11.3778 11.091 11.0661 11.6352 10.944C11.6719 10.9258 11.7062 10.9032 11.7376 10.8768L39.4528 10.8576Z" fill="url(#paint0_linear_321_236)"/>
<path d="M29.9584 26.6336C29.9584 27.8912 29.9584 29.1488 29.9584 30.4064C29.9584 30.8864 29.7408 31.1648 29.376 31.1648C29.0112 31.1648 28.8 30.8864 28.8 30.4V22.864C28.8 22.3872 29.0208 22.1056 29.3856 22.1056C29.7504 22.1056 29.9744 22.3872 29.9744 22.8608C29.9616 24.1184 29.9584 25.376 29.9584 26.6336Z" fill="url(#paint1_linear_321_236)"/>
<path d="M26.9344 27.7376C26.9344 28.6304 26.9344 29.5264 26.9344 30.4192C26.9344 30.8928 26.704 31.1712 26.336 31.1648C25.968 31.1584 25.76 30.8832 25.76 30.4384C25.76 28.6357 25.76 26.833 25.76 25.0304C25.76 24.5632 25.9936 24.2784 26.3584 24.2848C26.7232 24.2912 26.9312 24.5696 26.9344 25.0144C26.9376 25.92 26.9344 26.8288 26.9344 27.7376Z" fill="url(#paint2_linear_321_236)"/>
<path d="M31.8081 28.0608C31.8081 27.264 31.8081 26.4608 31.8081 25.6736C31.8081 25.232 32.0417 24.9568 32.3969 24.9568C32.7521 24.9568 32.9825 25.232 32.9825 25.6736C32.9825 27.2672 32.9825 28.8597 32.9825 30.4512C32.9825 30.8992 32.7585 31.1648 32.3969 31.1648C32.0353 31.1648 31.8113 30.8896 31.8081 30.448C31.8049 29.6544 31.8081 28.8576 31.8081 28.0608Z" fill="url(#paint3_linear_321_236)"/>
<path d="M23.9104 28.608C23.9104 29.248 23.9104 29.8624 23.9104 30.4928C23.9211 30.5762 23.9139 30.6609 23.8893 30.7413C23.8646 30.8217 23.8232 30.896 23.7676 30.9591C23.7121 31.0222 23.6437 31.0728 23.5671 31.1075C23.4904 31.1421 23.4073 31.16 23.3232 31.16C23.2391 31.16 23.156 31.1421 23.0793 31.1075C23.0027 31.0728 22.9343 31.0222 22.8788 30.9591C22.8232 30.896 22.7818 30.8217 22.7571 30.7413C22.7325 30.6609 22.7253 30.5762 22.736 30.4928C22.736 29.2128 22.736 27.9274 22.736 26.6368C22.7253 26.5534 22.7325 26.4686 22.7571 26.3882C22.7818 26.3078 22.8232 26.2336 22.8788 26.1704C22.9343 26.1073 23.0027 26.0567 23.0793 26.0221C23.156 25.9875 23.2391 25.9695 23.3232 25.9695C23.4073 25.9695 23.4904 25.9875 23.5671 26.0221C23.6437 26.0567 23.7121 26.1073 23.7676 26.1704C23.8232 26.2336 23.8646 26.3078 23.8893 26.3882C23.9139 26.4686 23.9211 26.5534 23.9104 26.6368C23.9168 27.2928 23.9104 27.952 23.9104 28.608Z" fill="url(#paint4_linear_321_236)"/>
<path d="M36.0064 28.9984C36.0064 29.5008 36.0064 30.0032 36.0064 30.5056C36.015 30.5877 36.0063 30.6706 35.9808 30.749C35.9552 30.8275 35.9135 30.8997 35.8583 30.961C35.8031 31.0223 35.7356 31.0713 35.6603 31.1048C35.5849 31.1384 35.5033 31.1557 35.4208 31.1557C35.3383 31.1557 35.2568 31.1384 35.1814 31.1048C35.106 31.0713 35.0386 31.0223 34.9833 30.961C34.9281 30.8997 34.8864 30.8275 34.8609 30.749C34.8354 30.6706 34.8266 30.5877 34.8352 30.5056C34.8352 29.488 34.8352 28.4704 34.8352 27.4496C34.8267 27.3661 34.8358 27.2817 34.8621 27.2019C34.8883 27.1221 34.931 27.0488 34.9875 26.9866C35.0439 26.9244 35.1128 26.8748 35.1897 26.841C35.2665 26.8072 35.3497 26.79 35.4336 26.7904C35.5134 26.7945 35.5915 26.8143 35.6636 26.8488C35.7356 26.8832 35.8001 26.9316 35.8534 26.9911C35.9066 27.0506 35.9476 27.12 35.9738 27.1954C36.0001 27.2708 36.0112 27.3507 36.0064 27.4304C36.0128 27.9648 36.0064 28.48 36.0064 28.9984Z" fill="url(#paint5_linear_321_236)"/>
<path d="M20.8863 29.5872C20.8863 29.9072 20.8863 30.2272 20.8863 30.5472C20.8918 30.6278 20.8802 30.7086 20.8523 30.7844C20.8243 30.8602 20.7807 30.9292 20.7242 30.987C20.6677 31.0447 20.5996 31.0898 20.5244 31.1193C20.4492 31.1489 20.3686 31.1622 20.2879 31.1584C20.2102 31.159 20.1332 31.1436 20.0617 31.1131C19.9902 31.0827 19.9258 31.0379 19.8724 30.9814C19.8189 30.925 19.7777 30.8582 19.7512 30.7851C19.7247 30.7121 19.7135 30.6344 19.7183 30.5568C19.7055 29.904 19.7055 29.2491 19.7183 28.592C19.7183 28.4367 19.78 28.2877 19.8899 28.1779C19.9997 28.0681 20.1486 28.0064 20.3039 28.0064C20.4593 28.0064 20.6082 28.0681 20.718 28.1779C20.8278 28.2877 20.8895 28.4367 20.8895 28.592V29.5968L20.8863 29.5872Z" fill="url(#paint6_linear_321_236)"/>
<path d="M17.0783 15.3856C16.9538 15.3968 16.8285 15.3968 16.7039 15.3856C16.5628 15.3728 16.4315 15.3075 16.3362 15.2026C16.2408 15.0978 16.1882 14.961 16.1888 14.8192C16.1836 14.7453 16.1932 14.6711 16.217 14.6009C16.2409 14.5308 16.2785 14.4661 16.3276 14.4106C16.3768 14.3552 16.4366 14.3101 16.5034 14.2781C16.5702 14.246 16.6427 14.2277 16.7168 14.224C16.9393 14.2064 17.163 14.2064 17.3855 14.224C17.4654 14.2197 17.5454 14.2312 17.6208 14.2578C17.6962 14.2844 17.7656 14.3257 17.8251 14.3792C17.8845 14.4327 17.9328 14.4974 17.9672 14.5696C18.0016 14.6418 18.0215 14.7201 18.0255 14.8C18.0255 15.1456 17.7727 15.3824 17.3695 15.3984H17.0751L17.0783 15.3856Z" fill="url(#paint7_linear_321_236)"/>
<path d="M20.112 15.3888H19.8592C19.7785 15.3947 19.6974 15.384 19.6209 15.3572C19.5445 15.3304 19.4745 15.2881 19.4151 15.233C19.3558 15.1779 19.3085 15.1111 19.2761 15.0369C19.2438 14.9627 19.2271 14.8825 19.2271 14.8016C19.2271 14.7206 19.2438 14.6405 19.2761 14.5663C19.3085 14.492 19.3558 14.4253 19.4151 14.3702C19.4745 14.3151 19.5445 14.2728 19.6209 14.246C19.6974 14.2192 19.7785 14.2084 19.8592 14.2144C20.0416 14.2144 20.2208 14.2144 20.4032 14.2144C20.484 14.2084 20.5651 14.2192 20.6415 14.246C20.7179 14.2728 20.788 14.3151 20.8473 14.3702C20.9067 14.4253 20.954 14.492 20.9863 14.5663C21.0187 14.6405 21.0354 14.7206 21.0354 14.8016C21.0354 14.8825 21.0187 14.9627 20.9863 15.0369C20.954 15.1111 20.9067 15.1779 20.8473 15.233C20.788 15.2881 20.7179 15.3304 20.6415 15.3572C20.5651 15.384 20.484 15.3947 20.4032 15.3888H20.112Z" fill="url(#paint8_linear_321_236)"/>
<path d="M14.1696 15.3888C14.0585 15.4081 13.9446 15.405 13.8348 15.3797C13.7249 15.3544 13.6211 15.3075 13.5296 15.2416C13.4685 15.1906 13.419 15.1272 13.3842 15.0557C13.3494 14.9842 13.3302 14.9061 13.3278 14.8266C13.3254 14.7471 13.3398 14.6679 13.3702 14.5944C13.4006 14.5209 13.4462 14.4546 13.504 14.4C13.7004 14.2714 13.93 14.2029 14.1648 14.2029C14.3995 14.2029 14.6292 14.2714 14.8256 14.4C14.8846 14.455 14.9311 14.5219 14.9622 14.5963C14.9932 14.6707 15.008 14.7508 15.0056 14.8314C15.0032 14.912 14.9836 14.9911 14.9481 15.0635C14.9127 15.1359 14.8621 15.1999 14.8 15.2512C14.7093 15.3148 14.6068 15.3597 14.4986 15.3833C14.3904 15.407 14.2785 15.4088 14.1696 15.3888Z" fill="url(#paint9_linear_321_236)"/>
<path d="M18.5216 27.3824C18.24 23.7408 15.2096 20.928 11.12 20.928C8.73284 21.0464 6.55364 22.288 5.30884 24.8512C4.06404 27.4144 4.38084 29.8976 6.08004 32.1824C6.25924 32.4224 6.34244 32.576 6.06404 32.784C5.78564 32.992 5.68004 33.328 5.42404 33.3408C5.16804 33.3536 5.01444 33.0016 4.81924 32.8064C4.69764 32.688 4.62404 32.656 4.49924 32.8064C4.03524 33.2896 3.53924 33.7664 3.08164 34.2368C3.0254 34.2854 2.9803 34.3456 2.94938 34.4133C2.91847 34.4809 2.90247 34.5544 2.90247 34.6288C2.90247 34.7031 2.91847 34.7766 2.94938 34.8443C2.9803 34.9119 3.0254 34.9721 3.08164 35.0208C3.12804 35.0788 3.1863 35.1263 3.25253 35.16C3.31876 35.1937 3.39143 35.2128 3.46566 35.2162C3.53989 35.2195 3.61398 35.2069 3.68296 35.1793C3.75194 35.1517 3.81423 35.1096 3.86564 35.056C4.05065 34.9094 4.21911 34.7431 4.36804 34.56C4.56644 34.3104 4.68804 34.3296 4.91204 34.56C5.53284 35.2 5.55204 35.2 4.91204 35.84C4.59204 36.16 4.54724 36.48 4.80004 36.752C5.05284 37.024 5.44004 36.9856 5.76004 36.6624C6.15044 36.2816 6.52164 35.8784 6.92484 35.5104C7.15844 35.2992 7.20004 35.1552 6.92484 34.9376C6.64964 34.72 6.33924 34.5152 6.32004 34.2784C6.30084 34.0416 6.72324 33.8304 6.91524 33.5808C7.10724 33.3312 7.23524 33.36 7.45284 33.5264C8.20127 34.0833 9.05599 34.4809 9.96415 34.6944C10.8723 34.908 11.8146 34.933 12.7328 34.768C14.4415 34.4733 15.9798 33.5545 17.0494 32.1898C18.119 30.8252 18.6436 29.1119 18.5216 27.3824ZM11.5616 33.6832C10.4157 33.6825 9.29567 33.342 8.34332 32.7046C7.39098 32.0672 6.64911 31.1616 6.2116 30.1025C5.77409 29.0433 5.66059 27.8782 5.88548 26.7545C6.11036 25.6309 6.66352 24.5992 7.47496 23.79C8.28639 22.9808 9.31963 22.4305 10.4439 22.2087C11.5682 21.9869 12.733 22.1036 13.791 22.5441C14.8489 22.9845 15.7524 23.7289 16.3872 24.683C17.0219 25.6371 17.3594 26.758 17.3568 27.904C17.3492 29.4371 16.7357 30.9051 15.6501 31.9877C14.5645 33.0704 13.0948 33.6798 11.5616 33.6832Z" fill="url(#paint10_linear_321_236)"/>
<path d="M12.16 27.7664C12.16 28.6624 12.16 29.5552 12.16 30.448C12.16 30.8992 11.9328 31.1648 11.5744 31.1648C11.216 31.1648 10.9856 30.8928 10.9856 30.4512C10.9856 28.6336 10.9856 26.8202 10.9856 25.0112C10.9856 24.5696 11.216 24.2944 11.5712 24.2944C11.9264 24.2944 12.16 24.56 12.16 25.0016C12.16 25.92 12.16 26.8448 12.16 27.7664Z" fill="url(#paint11_linear_321_236)"/>
<path d="M15.1744 28.608C15.1744 29.248 15.1744 29.8656 15.1744 30.4928C15.1853 30.5761 15.1784 30.6608 15.1542 30.7412C15.13 30.8216 15.089 30.896 15.034 30.9595C14.979 31.023 14.9112 31.0741 14.835 31.1095C14.7588 31.1449 14.676 31.1637 14.592 31.1648C14.508 31.1631 14.4252 31.1439 14.349 31.1084C14.2728 31.0729 14.2048 31.0219 14.1494 30.9587C14.094 30.8955 14.0524 30.8214 14.0272 30.7412C14.002 30.661 13.9939 30.5764 14.0032 30.4928C14.0032 29.2128 14.0032 27.9328 14.0032 26.6368C13.9907 26.5527 13.9966 26.4668 14.0203 26.3851C14.044 26.3034 14.085 26.2277 14.1406 26.1633C14.1962 26.0989 14.265 26.0472 14.3423 26.0118C14.4197 25.9763 14.5037 25.958 14.5888 25.958C14.6739 25.958 14.758 25.9763 14.8353 26.0118C14.9127 26.0472 14.9815 26.0989 15.0371 26.1633C15.0927 26.2277 15.1337 26.3034 15.1574 26.3851C15.1811 26.4668 15.1869 26.5527 15.1744 26.6368C15.1776 27.296 15.1744 27.952 15.1744 28.608Z" fill="url(#paint12_linear_321_236)"/>
<path d="M9.1264 29.2384C9.1264 29.6704 9.1264 30.1024 9.1264 30.5184C9.13349 30.5997 9.12362 30.6815 9.09743 30.7588C9.07123 30.836 9.02928 30.9069 8.97422 30.9671C8.91917 31.0273 8.85221 31.0754 8.7776 31.1083C8.70299 31.1412 8.62235 31.1583 8.5408 31.1584C8.45967 31.1569 8.3797 31.1389 8.30576 31.1055C8.23182 31.0721 8.16544 31.024 8.11066 30.9641C8.05589 30.9042 8.01386 30.8339 7.98713 30.7572C7.96041 30.6806 7.94954 30.5994 7.9552 30.5184C7.9552 29.6512 7.9552 28.7872 7.9552 27.92C7.94859 27.8389 7.9588 27.7572 7.98517 27.6802C8.01155 27.6032 8.05353 27.5324 8.10849 27.4724C8.16345 27.4123 8.23021 27.3642 8.30459 27.3311C8.37897 27.298 8.45939 27.2806 8.5408 27.28C8.62192 27.2816 8.70189 27.2996 8.77583 27.333C8.84978 27.3664 8.91616 27.4145 8.97093 27.4744C9.02571 27.5342 9.06773 27.6046 9.09446 27.6812C9.12119 27.7578 9.13205 27.8391 9.1264 27.92C9.1328 28.3712 9.1264 28.8 9.1264 29.2384Z" fill="url(#paint13_linear_321_236)"/>
<defs>
<linearGradient id="paint0_linear_321_236" x1="9.79837" y1="24.7872" x2="41.3856" y2="24.7872" gradientUnits="userSpaceOnUse">
<stop stop-color="#007F36"/>
<stop offset="1"/>
</linearGradient>
<linearGradient id="paint1_linear_321_236" x1="134.437" y1="776.103" x2="138.747" y2="776.103" gradientUnits="userSpaceOnUse">
<stop stop-color="#007F36"/>
<stop offset="1"/>
</linearGradient>
<linearGradient id="paint2_linear_321_236" x1="120.414" y1="620.387" x2="124.729" y2="620.387" gradientUnits="userSpaceOnUse">
<stop stop-color="#007F36"/>
<stop offset="1"/>
</linearGradient>
<linearGradient id="paint3_linear_321_236" x1="148.682" y1="569.336" x2="153.009" y2="569.336" gradientUnits="userSpaceOnUse">
<stop stop-color="#007F36"/>
<stop offset="1"/>
</linearGradient>
<linearGradient id="paint4_linear_321_236" x1="106.843" y1="489.271" x2="111.212" y2="489.271" gradientUnits="userSpaceOnUse">
<stop stop-color="#007F36"/>
<stop offset="1"/>
</linearGradient>
<linearGradient id="paint5_linear_321_236" x1="163.002" y1="422.156" x2="167.347" y2="422.156" gradientUnits="userSpaceOnUse">
<stop stop-color="#007F36"/>
<stop offset="1"/>
</linearGradient>
<linearGradient id="paint6_linear_321_236" x1="92.4225" y1="319.341" x2="96.7915" y2="319.341" gradientUnits="userSpaceOnUse">
<stop stop-color="#007F36"/>
<stop offset="1"/>
</linearGradient>
<linearGradient id="paint7_linear_321_236" x1="109.18" y1="69.137" x2="119.75" y2="69.137" gradientUnits="userSpaceOnUse">
<stop stop-color="#007F36"/>
<stop offset="1"/>
</linearGradient>
<linearGradient id="paint8_linear_321_236" x1="127.783" y1="68.6769" x2="138.199" y2="68.6769" gradientUnits="userSpaceOnUse">
<stop stop-color="#007F36"/>
<stop offset="1"/>
</linearGradient>
<linearGradient id="paint9_linear_321_236" x1="83.2297" y1="69.6613" x2="92.0241" y2="69.6613" gradientUnits="userSpaceOnUse">
<stop stop-color="#007F36"/>
<stop offset="1"/>
</linearGradient>
<linearGradient id="paint10_linear_321_236" x1="144.257" y1="1467.62" x2="908.883" y2="1467.62" gradientUnits="userSpaceOnUse">
<stop stop-color="#007F36"/>
<stop offset="1"/>
</linearGradient>
<linearGradient id="paint11_linear_321_236" x1="51.2558" y1="619.546" x2="55.5775" y2="619.546" gradientUnits="userSpaceOnUse">
<stop stop-color="#007F36"/>
<stop offset="1"/>
</linearGradient>
<linearGradient id="paint12_linear_321_236" x1="65.7851" y1="490.718" x2="70.154" y2="490.718" gradientUnits="userSpaceOnUse">
<stop stop-color="#007F36"/>
<stop offset="1"/>
</linearGradient>
<linearGradient id="paint13_linear_321_236" x1="37.1532" y1="381.612" x2="41.5044" y2="381.612" gradientUnits="userSpaceOnUse">
<stop stop-color="#007F36"/>
<stop offset="1"/>
</linearGradient>
</defs>
</svg>
