<svg width="76" height="76" viewBox="0 0 76 76" fill="none" xmlns="http://www.w3.org/2000/svg">
<circle cx="38" cy="38" r="38" fill="url(#paint0_linear_2504_1436)"/>
<path d="M57 30.25V51.4643C57 53.4163 55.4463 55 53.5312 55H23.4688C21.5537 55 20 53.4163 20 51.4643V30.25C20 28.298 21.5537 26.7143 23.4688 26.7143H29.8281L30.717 24.2908C31.2229 22.9134 32.5164 22 33.9617 22H43.0311C44.4764 22 45.7699 22.9134 46.2758 24.2908L47.1719 26.7143H53.5312C55.4463 26.7143 57 28.298 57 30.25ZM47.1719 40.8571C47.1719 35.9808 43.284 32.0179 38.5 32.0179C33.716 32.0179 29.8281 35.9808 29.8281 40.8571C29.8281 45.7335 33.716 49.6964 38.5 49.6964C43.284 49.6964 47.1719 45.7335 47.1719 40.8571ZM44.8594 40.8571C44.8594 44.4297 42.0049 47.3393 38.5 47.3393C34.9951 47.3393 32.1406 44.4297 32.1406 40.8571C32.1406 37.2846 34.9951 34.375 38.5 34.375C42.0049 34.375 44.8594 37.2846 44.8594 40.8571Z" fill="white"/>
<defs>
<linearGradient id="paint0_linear_2504_1436" x1="38" y1="0" x2="38" y2="76" gradientUnits="userSpaceOnUse">
<stop stop-color="#00B34A"/>
<stop offset="1" stop-color="#076F32"/>
</linearGradient>
</defs>
</svg>
